<svg width="100" height="100" viewBox="0 0 100 100" fill="none" xmlns="http://www.w3.org/2000/svg">
<g clip-path="url(#clip0_26_93)">
<path d="M47.1642 0.190269C32.1663 1.16727 17.5408 5.36837 4.42501 12.4223C1.07253 14.2395 0.288324 14.8648 0.0922725 15.92C-0.201804 17.4832 0.0138519 17.7958 3.68001 21.4889L7.11091 24.9475L6.18947 26.8819C2.8566 33.8186 0.817662 41.4197 0.209903 49.2161C0.0726674 50.9552 0.013852 54.8632 0.0530623 59.377C0.131483 66.255 0.170693 66.8022 0.582401 68.2677C2.15081 73.8366 5.73855 78.0963 10.8751 80.4997C12.0906 81.0664 20.4032 83.4112 45.9879 90.426C64.4363 95.4673 80.0812 99.7075 80.787 99.8052C85.6686 100.587 90.9228 98.9846 94.5498 95.565C96.7455 93.4938 98.51 90.7191 99.2746 88.1398L99.5883 87.1042L99.059 86.9088C98.7649 86.7916 88.2957 82.8836 75.7877 78.2135C63.2796 73.5435 52.5752 69.4987 52.0263 69.2251C49.8501 68.1895 47.968 65.9033 47.3602 63.5781C46.9289 61.8585 46.9093 41.2634 47.3602 39.5438C48.3993 35.6163 51.7518 32.9784 55.7904 32.9589C57.202 32.9393 59.437 33.4669 78.5716 38.2542C90.2562 41.1657 99.8432 43.5495 99.8824 43.5495C99.9804 43.5495 99.8824 42.6702 99.4903 39.5438C97.2357 22.4268 84.61 7.49823 67.8084 2.16381C61.8484 0.268425 55.3983 -0.35685 47.1642 0.190269ZM29.8921 43.53C33.1269 44.6633 35.5972 47.1449 36.7146 50.3495C37.342 52.2058 37.342 55.2149 36.7146 57.0712C35.5972 60.2953 33.0877 62.7965 29.8332 63.9102C28.1276 64.4964 24.9712 64.5355 23.344 63.9884C19.9719 62.8551 17.3644 60.3149 16.2469 57.0712C15.6195 55.2149 15.6195 52.2058 16.2469 50.3495C17.5408 46.6173 20.7757 43.8426 24.7163 43.0806C25.775 42.8852 28.755 43.1392 29.8921 43.53Z" fill="url(#paint0_linear_26_93)"/>
<path d="M24.7359 49.1576C23.0107 49.7633 21.5795 51.815 21.5795 53.7104C21.5795 54.8828 22.1677 56.2506 23.0499 57.1299C24.9712 59.0448 27.9904 59.0448 29.9117 57.1299C33.5974 53.4564 29.6764 47.4185 24.7359 49.1576Z" fill="url(#paint1_linear_26_93)"/>
<path d="M55.0258 38.86C54.7121 38.9577 54.2416 39.2312 53.9671 39.4852C52.9477 40.4232 52.9477 40.4036 52.9477 51.5805C52.9477 62.9528 52.9281 62.8356 54.1044 63.6758C54.5945 64.008 60.2408 66.216 60.6133 66.216C60.7113 66.216 60.7897 60.2954 60.7897 53.046V39.876L58.2803 39.2703C56.9079 38.9381 55.7316 38.6646 55.6924 38.6841C55.6336 38.6841 55.3395 38.7818 55.0258 38.86Z" fill="url(#paint2_linear_26_93)"/>
<path d="M66.6713 54.9609V68.5412L67.7104 68.9125C88.6878 76.7676 99.7059 80.871 99.8432 80.871C99.9216 80.871 100 73.8561 100 65.2585V49.646L83.4337 45.5231C74.3173 43.2565 66.8281 41.4002 66.7693 41.4002C66.7105 41.4002 66.6713 47.4966 66.6713 54.9609Z" fill="url(#paint3_linear_26_93)"/>
</g>
<defs>
<linearGradient id="paint0_linear_26_93" x1="0.267702" y1="50.5188" x2="99.9044" y2="52.6543" gradientUnits="userSpaceOnUse">
<stop stop-color="#FF6B35"/>
<stop offset="1" stop-color="#4A90E2"/>
</linearGradient>
<linearGradient id="paint1_linear_26_93" x1="0.499999" y1="55" x2="100.488" y2="53.3061" gradientUnits="userSpaceOnUse">
<stop stop-color="#FF6B35"/>
<stop offset="1" stop-color="#4A90E2"/>
</linearGradient>
<linearGradient id="paint2_linear_26_93" x1="1" y1="54" x2="99.1191" y2="44.7032" gradientUnits="userSpaceOnUse">
<stop stop-color="#FF6B35"/>
<stop offset="1" stop-color="#4A90E2"/>
</linearGradient>
<linearGradient id="paint3_linear_26_93" x1="0.5" y1="57" x2="100.052" y2="60.8867" gradientUnits="userSpaceOnUse">
<stop stop-color="#FF6B35"/>
<stop offset="1" stop-color="#4A90E2"/>
</linearGradient>
<clipPath id="clip0_26_93">
<rect width="100" height="100" fill="white"/>
</clipPath>
</defs>
</svg>
