<?xml version="1.0" standalone="no"?>
<!DOCTYPE svg PUBLIC "-//W3C//DTD SVG 20010904//EN"
 "http://www.w3.org/TR/2001/REC-SVG-20010904/DTD/svg10.dtd">
<svg version="1.0" xmlns="http://www.w3.org/2000/svg"
 width="512.000000pt" height="512.000000pt" viewBox="0 0 512.000000 512.000000"
 preserveAspectRatio="xMidYMid meet">

<g transform="translate(0.000000,512.000000) scale(0.100000,-0.100000)"
fill="#000000" stroke="none">
<path d="M2415 5109 c-765 -50 -1511 -265 -2180 -626 -171 -93 -211 -125 -221
-179 -15 -80 -4 -96 183 -285 l175 -177 -47 -99 c-170 -355 -274 -744 -305
-1143 -7 -89 -10 -289 -8 -520 4 -352 6 -380 27 -455 80 -285 263 -503 525
-626 62 -29 486 -149 1791 -508 941 -258 1739 -475 1775 -480 249 -40 517 42
702 217 112 106 202 248 241 380 l16 53 -27 10 c-15 6 -549 206 -1187 445
-638 239 -1184 446 -1212 460 -111 53 -207 170 -238 289 -22 88 -23 1142 0
1230 53 201 224 336 430 337 72 1 186 -26 1162 -271 596 -149 1085 -271 1087
-271 5 0 0 45 -20 205 -115 876 -759 1640 -1616 1913 -304 97 -633 129 -1053
101z m-881 -2218 c165 -58 291 -185 348 -349 32 -95 32 -249 0 -344 -57 -165
-185 -293 -351 -350 -87 -30 -248 -32 -331 -4 -172 58 -305 188 -362 354 -32
95 -32 249 0 344 66 191 231 333 432 372 54 10 206 -3 264 -23z"/>
<path d="M1271 2603 c-88 -31 -161 -136 -161 -233 0 -60 30 -130 75 -175 98
-98 252 -98 350 0 188 188 -12 497 -264 408z"/>
<path d="M2816 3130 c-16 -5 -40 -19 -54 -32 -52 -48 -52 -47 -52 -619 0 -582
-1 -576 59 -619 25 -17 313 -130 332 -130 5 0 9 303 9 674 l0 674 -128 31
c-70 17 -130 31 -132 30 -3 0 -18 -5 -34 -9z"/>
<path d="M3410 2306 l0 -695 53 -19 c1070 -402 1632 -612 1639 -612 4 0 8 359
8 799 l0 799 -845 211 c-465 116 -847 211 -850 211 -3 0 -5 -312 -5 -694z"/>
</g>
</svg>
