<?xml version="1.0" standalone="no"?>
<!DOCTYPE svg PUBLIC "-//W3C//DTD SVG 20010904//EN"
 "http://www.w3.org/TR/2001/REC-SVG-20010904/DTD/svg10.dtd">
<svg version="1.0" xmlns="http://www.w3.org/2000/svg"
 width="512.000000pt" height="512.000000pt" viewBox="0 0 512.000000 512.000000"
 preserveAspectRatio="xMidYMid meet">

<g transform="translate(0.000000,512.000000) scale(0.100000,-0.100000)"
fill="#000000" stroke="none">
<path d="M1797 4473 c-4 -3 -7 -264 -7 -579 l0 -573 378 -285 c207 -157 384
-286 392 -286 19 0 757 556 770 580 15 29 13 1123 -2 1138 -9 9 -193 12 -768
12 -416 0 -760 -3 -763 -7z m496 -462 c142 -105 264 -191 272 -191 8 0 132 88
275 195 143 107 262 195 265 195 3 0 4 -44 3 -97 l-3 -98 -270 -203 c-241
-183 -271 -203 -289 -192 -11 7 -136 100 -278 206 l-258 194 0 101 c0 80 3 99
13 92 6 -6 128 -96 270 -202z m800 -432 c-10 -9 -133 -103 -273 -209 -228
-172 -256 -191 -274 -180 -11 7 -136 100 -278 206 l-258 194 0 96 c0 79 3 95
14 91 8 -3 129 -92 269 -196 139 -105 260 -191 269 -191 8 0 134 89 279 198
l264 199 3 -96 c2 -80 0 -97 -15 -112z"/>
<path d="M2450 2475 l0 -106 -112 -164 -112 -163 -226 -67 c-252 -74 -270 -84
-270 -156 0 -37 13 -58 143 -227 l144 -187 -5 -245 -4 -245 27 -27 c19 -20 38
-28 62 -28 19 0 131 34 249 76 l215 75 214 -75 c117 -42 229 -76 248 -76 27 0
41 7 63 32 l27 33 -6 240 -7 240 145 188 c129 168 145 193 145 227 0 70 -19
81 -272 156 l-226 67 -111 161 -111 161 0 108 c0 59 -2 107 -5 107 -2 0 -21
-11 -41 -25 -20 -14 -49 -25 -64 -25 -15 0 -44 11 -64 25 -20 14 -39 25 -41
25 -3 0 -5 -47 -5 -105z"/>
</g>
</svg>
