<svg width="24" height="24" viewBox="0 0 24 24" fill="none" xmlns="http://www.w3.org/2000/svg">
<g clip-path="url(#clip0_28_126)">
<path d="M6.47995 0.0463982C6.4513 0.066288 6.42981 1.79667 6.42981 3.88507V7.68397L9.13743 9.57347C10.6202 10.6144 11.888 11.4696 11.9453 11.4696C12.0814 11.4696 17.3678 7.78342 17.4609 7.6243C17.5683 7.43203 17.554 0.178995 17.4465 0.0795469C17.3821 0.0198784 16.0641 -1.04904e-05 11.9453 -1.04904e-05C8.96552 -1.04904e-05 6.50144 0.0198784 6.47995 0.0463982ZM10.0328 3.10938C11.05 3.80551 11.9239 4.37568 11.9812 4.37568C12.0385 4.37568 12.9267 3.79225 13.951 3.08286C14.9753 2.37347 15.8277 1.79004 15.8492 1.79004C15.8707 1.79004 15.8778 2.08176 15.8707 2.43314L15.8492 3.08286L13.9152 4.42872C12.1889 5.64198 11.974 5.77458 11.8451 5.70165C11.7663 5.65524 10.8709 5.03866 9.85374 4.3359L8.00568 3.04971V2.3801C8.00568 1.84971 8.02716 1.72375 8.09879 1.77015C8.14177 1.80993 9.01566 2.40662 10.0328 3.10938ZM15.7632 5.97347C15.6916 6.03314 14.8106 6.65634 13.8077 7.35911C12.1746 8.49944 11.974 8.62541 11.8451 8.55248C11.7663 8.50607 10.8709 7.88949 9.85374 7.18673L8.00568 5.90054V5.26408C8.00568 4.74032 8.02716 4.63424 8.10596 4.66076C8.16326 4.68065 9.02999 5.27071 10.0328 5.96021C11.0285 6.65634 11.8952 7.22651 11.9597 7.22651C12.017 7.22651 12.9195 6.63645 13.9582 5.9138L15.8492 4.59447L15.8707 5.23093C15.885 5.76132 15.8707 5.87402 15.7632 5.97347Z" fill="white"/>
<path d="M11.1574 13.2928V13.9956L10.3551 15.0829L9.55286 16.1635L7.93402 16.6077C6.12893 17.0983 6 17.1646 6 17.642C6 17.8873 6.09312 18.0265 7.02431 19.147L8.05579 20.3867L8.01997 22.011L7.99132 23.6354L8.18472 23.8144C8.32082 23.947 8.45692 24 8.62883 24C8.76493 24 9.56719 23.7746 10.4124 23.4961L11.9525 22.9989L13.4854 23.4961C14.3234 23.7746 15.1257 24 15.2618 24C15.4552 24 15.5555 23.9536 15.7131 23.7878L15.9065 23.5691L15.8635 21.9779L15.8133 20.3867L16.852 19.1403C17.776 18.0265 17.8906 17.8608 17.8906 17.6354C17.8906 17.1713 17.7545 17.0983 15.9423 16.6011L14.3234 16.1569L13.5283 15.0895L12.7332 14.0221V13.3061C12.7332 12.9149 12.7189 12.5967 12.6974 12.5967C12.6831 12.5967 12.547 12.6696 12.4037 12.7624C12.2605 12.8552 12.0528 12.9282 11.9453 12.9282C11.8379 12.9282 11.6301 12.8552 11.4869 12.7624C11.3436 12.6696 11.2075 12.5967 11.1932 12.5967C11.1717 12.5967 11.1574 12.9083 11.1574 13.2928Z" fill="white"/>
</g>
<defs>
<clipPath id="clip0_28_126">
<rect width="24" height="24" fill="white"/>
</clipPath>
</defs>
</svg>
