<?xml version="1.0" standalone="no"?>
<!DOCTYPE svg PUBLIC "-//W3C//DTD SVG 20010904//EN"
 "http://www.w3.org/TR/2001/REC-SVG-20010904/DTD/svg10.dtd">
<svg version="1.0" xmlns="http://www.w3.org/2000/svg"
 width="512.000000pt" height="512.000000pt" viewBox="0 0 512.000000 512.000000"
 preserveAspectRatio="xMidYMid meet">

<g transform="translate(0.000000,512.000000) scale(0.100000,-0.100000)"
fill="#000000" stroke="none">
<path d="M2572 4500 c-97 -23 -140 -151 -75 -222 40 -45 61 -48 295 -48 200 0
226 -2 254 -19 26 -16 40 -45 106 -215 l76 -196 -102 0 c-55 0 -145 -7 -198
-15 -398 -60 -685 -230 -842 -499 l-38 -65 -767 -3 -766 -3 -60 -24 c-119 -48
-210 -168 -230 -304 l-7 -47 -50 0 c-69 0 -113 -24 -145 -77 -58 -100 1 -239
127 -297 42 -20 68 -21 430 -27 296 -5 400 -10 450 -22 246 -59 467 -195 614
-378 139 -174 222 -383 234 -586 l5 -93 297 0 c163 0 378 3 477 7 l180 6 6 91
c33 498 314 983 721 1248 33 21 63 35 67 31 10 -11 79 -192 79 -207 0 -7 -39
-37 -87 -68 -274 -176 -489 -468 -569 -771 -18 -71 -8 -120 35 -161 41 -40
115 -47 163 -18 40 25 50 41 83 146 71 220 227 428 416 556 90 62 235 127 346
157 86 23 118 26 258 27 120 0 177 -5 230 -18 121 -30 169 -32 210 -6 84 52
88 172 8 228 -16 10 -66 28 -113 40 -199 49 -400 53 -603 12 -59 -12 -110 -20
-112 -18 -8 8 -265 681 -262 685 2 2 21 -4 42 -13 53 -22 172 -30 219 -14 49
16 92 54 117 102 19 37 21 59 21 269 0 146 -4 241 -12 263 -14 45 -92 114
-136 122 -163 30 -340 -60 -417 -213 l-22 -42 -79 207 c-43 114 -91 235 -107
269 -53 119 -161 203 -287 224 -68 11 -433 10 -480 -1z m-19 -2531 c40 -11
100 -58 119 -93 52 -97 8 -230 -95 -281 -119 -59 -243 -3 -277 124 -28 105 39
218 148 251 38 12 61 11 105 -1z"/>
<path d="M4227 2210 c-324 -39 -588 -268 -679 -587 -32 -111 -32 -305 0 -416
75 -261 263 -461 520 -550 72 -25 107 -31 208 -35 197 -8 341 31 488 129 411
274 476 852 138 1211 -175 185 -427 278 -675 248z"/>
<path d="M630 2190 c-41 -11 -115 -40 -165 -64 -163 -81 -273 -193 -355 -361
-59 -122 -81 -216 -81 -350 0 -134 22 -228 81 -350 54 -111 117 -193 206 -267
75 -62 237 -141 334 -163 97 -22 253 -22 350 0 41 9 120 38 175 65 172 84 282
193 365 365 26 55 51 112 54 127 l6 27 -392 3 c-430 3 -421 2 -480 65 -34 36
-48 73 -48 128 0 55 14 92 48 129 52 55 58 56 482 56 l392 0 -7 33 c-12 58
-103 231 -155 294 -101 122 -261 221 -424 263 -106 27 -280 27 -386 0z"/>
</g>
</svg>
