<svg width="24" height="24" viewBox="0 0 24 24" fill="none" xmlns="http://www.w3.org/2000/svg">
<path d="M12.0563 2.90625C11.6016 3.01406 11.4 3.61406 11.7047 3.94687C11.8922 4.15781 11.9907 4.17187 13.0875 4.17187C14.025 4.17187 14.1469 4.18125 14.2782 4.26094C14.4 4.33594 14.4657 4.47187 14.775 5.26875L15.1313 6.1875H14.6532C14.3953 6.1875 13.9735 6.22031 13.725 6.25781C11.8594 6.53906 10.5141 7.33594 9.77815 8.59687L9.60003 8.90156L6.00471 8.91562L2.41409 8.92969L2.13284 9.04219C1.57502 9.26719 1.14846 9.82969 1.05471 10.4672L1.0219 10.6875H0.787525C0.464087 10.6875 0.257837 10.8 0.107837 11.0484C-0.164038 11.5172 0.112525 12.1687 0.70315 12.4406C0.900025 12.5344 1.0219 12.5391 2.71877 12.5672C4.10628 12.5906 4.59377 12.6141 4.82815 12.6703C5.98128 12.9469 7.01721 13.5844 7.70627 14.4422C8.35784 15.2578 8.7469 16.2375 8.80315 17.1891L8.82659 17.625H10.2188C10.9828 17.625 11.9907 17.6109 12.4547 17.5922L13.2985 17.5641L13.3266 17.1375C13.4813 14.8031 14.7985 12.5297 16.7063 11.2875C16.861 11.1891 17.0016 11.1234 17.0203 11.1422C17.0672 11.1937 17.3906 12.0422 17.3906 12.1125C17.3906 12.1453 17.2078 12.2859 16.9828 12.4312C15.6985 13.2562 14.6906 14.625 14.3156 16.0453C14.2313 16.3781 14.2782 16.6078 14.4797 16.8C14.6719 16.9875 15.0188 17.0203 15.2438 16.8844C15.4313 16.7672 15.4782 16.6922 15.6328 16.2C15.9657 15.1687 16.6969 14.1937 17.5828 13.5938C18.0047 13.3031 18.6844 12.9984 19.2047 12.8578C19.6078 12.75 19.7578 12.7359 20.4141 12.7312C20.9766 12.7312 21.2438 12.7547 21.4922 12.8156C22.0594 12.9562 22.2844 12.9656 22.4766 12.8438C22.8703 12.6 22.8891 12.0375 22.5141 11.775C22.4391 11.7281 22.2047 11.6437 21.9844 11.5875C21.0516 11.3578 20.1094 11.3391 19.1578 11.5312C18.8813 11.5875 18.6422 11.625 18.6328 11.6156C18.5953 11.5781 17.3906 8.42344 17.4047 8.40469C17.4141 8.39531 17.5032 8.42344 17.6016 8.46562C17.85 8.56875 18.4078 8.60625 18.6282 8.53125C18.8578 8.45625 19.0594 8.27812 19.1766 8.05312C19.2656 7.87969 19.275 7.77656 19.275 6.79219C19.275 6.10781 19.2563 5.6625 19.2188 5.55937C19.1531 5.34844 18.7875 5.025 18.5813 4.9875C17.8172 4.84687 16.9875 5.26875 16.6266 5.98594L16.5235 6.18281L16.1532 5.2125C15.9516 4.67812 15.7266 4.11094 15.6516 3.95156C15.4032 3.39375 14.8969 3 14.3063 2.90156C13.9875 2.85 12.2766 2.85469 12.0563 2.90625ZM11.9672 14.7703C12.1547 14.8219 12.436 15.0422 12.525 15.2062C12.7688 15.6609 12.5625 16.2844 12.0797 16.5234C11.5219 16.8 10.9406 16.5375 10.7813 15.9422C10.65 15.45 10.9641 14.9203 11.475 14.7656C11.6532 14.7094 11.761 14.7141 11.9672 14.7703Z" fill="white"/>
<path d="M19.8141 13.6407C18.2954 13.8235 17.0579 14.897 16.6313 16.3923C16.4813 16.9126 16.4813 17.822 16.6313 18.3423C16.9829 19.5657 17.8641 20.5032 19.0688 20.9204C19.4063 21.0376 19.5704 21.0657 20.0438 21.0845C20.9672 21.122 21.6422 20.9392 22.3313 20.4798C24.2579 19.1954 24.5625 16.486 22.9782 14.8032C22.1579 13.936 20.9766 13.5001 19.8141 13.6407Z" fill="white"/>
<path d="M2.95317 13.7344C2.76099 13.786 2.41411 13.9219 2.17974 14.0344C1.41567 14.4141 0.900049 14.9391 0.515674 15.7266C0.239111 16.2985 0.135986 16.7391 0.135986 17.3672C0.135986 17.9954 0.239111 18.436 0.515674 19.0079C0.768799 19.5282 1.06411 19.9125 1.4813 20.2594C1.83286 20.55 2.59224 20.9204 3.04692 21.0235C3.50161 21.1266 4.23286 21.1266 4.68755 21.0235C4.87974 20.9813 5.25005 20.8454 5.50786 20.7188C6.31411 20.325 6.82974 19.8141 7.2188 19.0079C7.34067 18.75 7.45786 18.4829 7.47192 18.4125L7.50005 18.286L5.66255 18.2719C3.64692 18.2579 3.68911 18.2625 3.41255 17.9672C3.25317 17.7985 3.18755 17.625 3.18755 17.3672C3.18755 17.1094 3.25317 16.936 3.41255 16.7625C3.6563 16.5047 3.68442 16.5 5.67192 16.5H7.50942L7.47661 16.3454C7.42036 16.0735 6.9938 15.2625 6.75005 14.9672C6.27661 14.3954 5.52661 13.9313 4.76255 13.7344C4.26567 13.6079 3.45005 13.6079 2.95317 13.7344Z" fill="white"/>
</svg>
